<?xml version="1.0" encoding="UTF-8"?>
<svg version="1.1" xmlns="http://www.w3.org/2000/svg" width="500" height="500">
<path d="M0 0 C1.21128067 -0.00637985 2.42256134 -0.0127597 3.67054749 -0.01933289 C4.97479172 -0.02044571 6.27903595 -0.02155853 7.62280273 -0.02270508 C8.97753433 -0.02591949 10.33226559 -0.02928371 11.68699646 -0.03279114 C14.5222962 -0.03877062 17.3575655 -0.04063213 20.19287109 -0.04003906 C23.82683224 -0.03993723 27.46059892 -0.05361618 31.09451389 -0.07081127 C33.89032388 -0.08192253 36.68608662 -0.08395858 39.48191643 -0.08342934 C41.47335632 -0.08518354 43.46478148 -0.09602503 45.45619202 -0.10697937 C47.26838478 -0.10236443 47.26838478 -0.10236443 49.1171875 -0.09765625 C50.18211929 -0.09908127 51.24705109 -0.10050629 52.34425354 -0.10197449 C54.99389648 0.14526367 54.99389648 0.14526367 57.99389648 2.14526367 C58.36889648 5.14526367 58.36889648 5.14526367 57.99389648 8.14526367 C54.60053148 10.40750701 53.39068364 10.4035857 49.40844727 10.43237305 C47.69118942 10.45249451 47.69118942 10.45249451 45.9392395 10.47302246 C44.0829744 10.48093811 44.0829744 10.48093811 42.18920898 10.48901367 C40.91794159 10.50363647 39.64667419 10.51825928 38.33688354 10.5333252 C34.26425002 10.57992062 30.19167131 10.61445835 26.11889648 10.64526367 C20.76715347 10.68581913 15.41576439 10.74004971 10.06420898 10.80151367 C8.21401657 10.80942932 8.21401657 10.80942932 6.32644653 10.81750488 C5.17530365 10.83091919 4.02416077 10.8443335 2.83813477 10.8581543 C1.82792267 10.86544556 0.81771057 10.87273682 -0.22311401 10.88024902 C-4.09893062 11.24932989 -6.86639172 11.97577111 -9.62632275 14.80781937 C-11.46891213 17.92929356 -11.39083046 20.15870572 -11.40483093 23.77642822 C-11.41479347 24.77145859 -11.41479347 24.77145859 -11.42495728 25.78659058 C-11.44363285 28.01470171 -11.44095835 30.24227814 -11.43847656 32.47045898 C-11.44758045 34.09294766 -11.45799304 35.71542944 -11.46960926 37.33790207 C-11.49711185 41.68446467 -11.5066923 46.03089441 -11.51258087 50.37753296 C-11.52081509 54.4556176 -11.54518478 58.53354329 -11.5682373 62.61157227 C-11.62625093 74.53940152 -11.6583415 86.46734546 -11.69360352 98.39526367 C-11.79672852 125.04276367 -11.89985352 151.69026367 -12.00610352 179.14526367 C86.33389648 179.14526367 184.67389648 179.14526367 285.99389648 179.14526367 C285.93202148 152.51838867 285.87014648 125.89151367 285.80639648 98.45776367 C285.79970947 90.04574463 285.79302246 81.63372559 285.78613281 72.96679688 C285.75626302 65.43585956 285.75626302 65.43585956 285.71977234 57.904953 C285.70367811 54.54674894 285.7015944 51.18884748 285.70793152 47.83061218 C285.71555639 43.54790908 285.69937049 39.26591949 285.66587961 34.9833473 C285.65764958 33.41106062 285.65781187 31.83870253 285.66728747 30.26642287 C285.6788866 28.14231703 285.65984536 26.02060237 285.63313293 23.89668274 C285.63036756 22.706648 285.62760218 21.51661325 285.624753 20.29051685 C284.80646966 16.21081219 283.18750201 14.72728647 279.99389648 12.14526367 C276.84765754 11.09651736 274.58887157 11.00211971 271.28491211 10.97167969 C270.11359741 10.95818985 268.94228271 10.94470001 267.73547363 10.93080139 C266.46981567 10.92036301 265.20415771 10.90992462 263.90014648 10.89916992 C261.91691047 10.87466948 259.93367452 10.85015781 257.95044708 10.82497311 C253.05469815 10.76417666 248.1588572 10.71344509 243.26293945 10.66845703 C240.51573855 10.64282967 237.76868616 10.61202693 235.02160645 10.57566833 C232.43193879 10.54176769 229.84215165 10.51588981 227.25231934 10.49867249 C226.08100464 10.48203049 224.90968994 10.46538849 223.70288086 10.44824219 C222.67046265 10.43793472 221.63804443 10.42762726 220.57434082 10.41700745 C217.99389648 10.14526367 217.99389648 10.14526367 214.99389648 8.14526367 C214.68139648 5.14526367 214.68139648 5.14526367 214.99389648 2.14526367 C217.68657511 -0.54741495 219.05241315 -0.10797301 222.81713867 -0.11352539 C224.03890808 -0.11982971 225.26067749 -0.12613403 226.51947021 -0.13262939 C227.85990543 -0.12904811 229.20033933 -0.12494578 230.54077148 -0.12036133 C231.91359526 -0.12170864 233.28641858 -0.12364972 234.65924072 -0.12615967 C237.541021 -0.12911182 240.42267746 -0.12481313 243.30444336 -0.11547852 C246.98751149 -0.10412666 250.67028676 -0.11061549 254.35334396 -0.12262344 C257.19132665 -0.12987636 260.02924082 -0.12753768 262.86722565 -0.12236786 C264.88233124 -0.12039408 266.89743955 -0.12644406 268.91253662 -0.13262939 C270.14691467 -0.12632507 271.38129272 -0.12002075 272.65307617 -0.11352539 C273.73514343 -0.1119342 274.81721069 -0.11034302 275.93206787 -0.10870361 C281.84676534 0.38189852 286.34742091 2.50889148 290.99389648 6.14526367 C295.19892602 11.71408657 296.14306629 15.77264658 296.14779663 22.58940125 C296.15217888 23.35402784 296.15656114 24.11865443 296.16107619 24.90645152 C296.17446369 27.47653657 296.18064295 30.04658732 296.18676758 32.61669922 C296.19466861 34.45635635 296.20293756 36.29601194 296.21154785 38.13566589 C296.23776879 44.18442301 296.25307602 50.23318705 296.26733398 56.28198242 C296.27269372 58.36418983 296.27807123 60.44639719 296.28346634 62.52860451 C296.30509556 71.19027322 296.32383211 79.85194007 296.33508873 88.51362896 C296.35132671 100.92676027 296.38450049 113.3395785 296.44148958 125.75259179 C296.48019379 134.48051829 296.49972203 143.20836108 296.50500929 151.93637115 C296.5086622 157.14915155 296.52067717 162.36159802 296.55311203 167.57428551 C296.58320079 172.48028174 296.58950153 177.38574215 296.57772827 182.29181099 C296.5775076 184.08970004 296.58580717 185.88761401 296.60338211 187.68541718 C296.76552597 205.23069209 296.76552597 205.23069209 290.99389648 211.14526367 C290.51777609 211.63866084 290.04165569 212.13205801 289.55110741 212.64040661 C283.06599481 218.62720198 276.06589498 218.42901788 267.75610352 218.37231445 C266.63356674 218.37260651 265.51102997 218.37289856 264.35447693 218.37319946 C260.65347496 218.37180895 256.95267568 218.35626054 253.25170898 218.34057617 C250.68195709 218.33684506 248.11220378 218.33399855 245.54244995 218.33200073 C239.47585634 218.32515127 233.40934606 218.30939704 227.34278381 218.28930175 C220.43347559 218.26691379 213.52416383 218.25594205 206.61482835 218.24591088 C192.40781222 218.22502992 178.20085693 218.18987207 163.99389648 218.14526367 C164.42702148 219.27706055 164.86014648 220.40885742 165.30639648 221.57495117 C165.86906935 223.05665637 166.43155991 224.53843081 166.99389648 226.02026367 C167.28006836 226.76663086 167.56624023 227.51299805 167.86108398 228.28198242 C169.99389648 233.91870117 169.99389648 233.91870117 169.99389648 236.14526367 C170.74074707 236.14002686 171.48759766 236.13479004 172.25708008 236.12939453 C175.62767705 236.10865966 178.99826063 236.09561468 182.36889648 236.08276367 C183.54452148 236.07438477 184.72014648 236.06600586 185.93139648 236.05737305 C187.05288086 236.05415039 188.17436523 236.05092773 189.32983398 236.04760742 C190.36672363 236.04237061 191.40361328 236.03713379 192.47192383 236.03173828 C194.99389648 236.14526367 194.99389648 236.14526367 196.99389648 237.14526367 C197.74389648 240.02026367 197.74389648 240.02026367 197.99389648 243.14526367 C197.33389648 244.13526367 196.67389648 245.12526367 195.99389648 246.14526367 C193.91053772 246.52278709 193.91053772 246.52278709 191.28710938 246.5262146 C190.29438019 246.53467407 189.301651 246.54313354 188.27883911 246.55184937 C186.63925735 246.54274033 186.63925735 246.54274033 184.96655273 246.53344727 C183.24455154 246.5413327 183.24455154 246.5413327 181.48776245 246.54937744 C177.67717042 246.56262643 173.86699307 246.55382174 170.05639648 246.54370117 C167.41845621 246.54572049 164.78051648 246.54863073 162.14257812 246.55239868 C156.60761995 246.55786054 151.07278176 246.55065345 145.5378418 246.53637695 C139.1336903 246.52004949 132.72982529 246.5253377 126.32568073 246.54185617 C120.17149864 246.5570961 114.01744383 246.55550143 107.86325073 246.54671097 C105.24128174 246.54470388 102.61930548 246.54718596 99.99734497 246.55414963 C96.33844385 246.56173372 92.68009967 246.55020202 89.02124023 246.53344727 C87.92818573 246.53951996 86.83513123 246.54559265 85.70895386 246.55184937 C84.21986008 246.53916016 84.21986008 246.53916016 82.70068359 246.5262146 C81.83495224 246.52508352 80.96922089 246.52395245 80.07725525 246.52278709 C79.38974686 246.39820436 78.70223846 246.27362164 77.99389648 246.14526367 C75.99389648 243.14526367 75.99389648 243.14526367 76.24389648 240.02026367 C76.49139648 239.07151367 76.73889648 238.12276367 76.99389648 237.14526367 C79.65567869 235.81437257 81.68129044 236.03257374 84.65795898 236.04760742 C85.77944336 236.05083008 86.90092773 236.05405273 88.05639648 236.05737305 C89.23202148 236.06575195 90.40764648 236.07413086 91.61889648 236.08276367 C92.80225586 236.08727539 93.98561523 236.09178711 95.20483398 236.09643555 C98.13457155 236.108249 101.06420921 236.1247211 103.99389648 236.14526367 C104.10604492 235.46077148 104.21819336 234.7762793 104.33374023 234.07104492 C105.10161042 230.66788062 106.27803596 227.57783269 107.55639648 224.33276367 C108.01143555 223.17131836 108.46647461 222.00987305 108.93530273 220.81323242 C109.45930664 219.49258789 109.45930664 219.49258789 109.99389648 218.14526367 C109.40343788 218.14895084 108.81297928 218.15263802 108.20462799 218.15643692 C93.81475715 218.24490601 79.42491064 218.31103056 65.03482819 218.35251236 C58.07577221 218.37310766 51.11689816 218.40116976 44.15795898 218.44702148 C37.44062299 218.49126008 30.72351491 218.51441007 24.00602722 218.52477264 C21.44480924 218.53215632 18.88360145 218.54657487 16.32246399 218.5681839 C12.73159549 218.59727273 9.14150471 218.6012172 5.55053711 218.59936523 C3.96665192 218.62093689 3.96665192 218.62093689 2.35076904 218.64294434 C-5.00373713 218.60197341 -10.38543999 217.39547321 -16.02954102 212.32885742 C-16.47555664 211.75264648 -16.92157227 211.17643555 -17.38110352 210.58276367 C-17.84258789 210.00397461 -18.30407227 209.42518555 -18.77954102 208.82885742 C-21.89228951 204.55626315 -22.29928566 201.77280657 -22.2869873 196.63192749 C-22.29590067 195.47379529 -22.29590067 195.47379529 -22.30499411 194.29226649 C-22.32238136 191.69683527 -22.32538566 189.10158841 -22.32836914 186.50610352 C-22.33762479 184.64836227 -22.34767402 182.79062484 -22.35845947 180.93289185 C-22.38472348 175.87890884 -22.39760111 170.824979 -22.40648079 165.7709384 C-22.4123413 162.61278409 -22.42055086 159.45464433 -22.42948914 156.29649734 C-22.45684681 146.41386875 -22.47617479 136.53127337 -22.48389292 126.64860952 C-22.49284862 115.24389859 -22.52791495 103.83966777 -22.58589411 92.43510282 C-22.62915681 83.61882878 -22.6493031 74.80268964 -22.65197515 65.9863106 C-22.65406971 60.72147401 -22.66585039 55.45708848 -22.70161438 50.19236374 C-22.73462571 45.23621217 -22.73886384 40.2808494 -22.72133636 35.32462692 C-22.71979806 33.50941858 -22.72844936 31.69416743 -22.74825287 29.87906647 C-22.91812998 13.33313319 -22.91812998 13.33313319 -17.59871674 6.71073341 C-12.22505414 1.42865608 -7.44258365 0.02661997 0 0 Z M-12.00610352 189.14526367 C-13.17471297 200.1639834 -13.17471297 200.1639834 -9.75610352 204.27026367 C-5.7230254 207.02008966 -3.08294235 208.39469236 1.84498501 208.39973927 C3.3153322 208.40848756 3.3153322 208.40848756 4.81538337 208.41741258 C5.88978693 208.41363326 6.96419049 208.40985393 8.07115173 208.40596008 C9.78607853 208.4116984 9.78607853 208.4116984 11.53565031 208.41755265 C14.70944829 208.42609489 17.88309886 208.42564558 21.05690086 208.42137206 C24.47960185 208.41890861 27.90227543 208.42791423 31.32496643 208.43540955 C38.03045553 208.44816912 44.73590461 208.44994868 51.4414038 208.44760928 C56.89083199 208.44582741 62.34024802 208.44757296 67.78967476 208.45183372 C68.95234812 208.45272651 68.95234812 208.45272651 70.13850983 208.45363733 C71.71307504 208.45484906 73.28764025 208.45606319 74.86220545 208.4572797 C89.63366571 208.46816004 104.40510315 208.46599039 119.1765647 208.45989486 C132.69446816 208.45472497 146.21229957 208.46598214 159.73018878 208.48499308 C173.60576865 208.50435768 187.48131442 208.51262992 201.3569079 208.50886983 C209.14884566 208.50695572 216.94072209 208.5094657 224.73264885 208.52358437 C231.36579313 208.53548158 237.99883833 208.53692176 244.63198393 208.5247942 C248.01695765 208.51889377 251.40160096 208.51945667 254.78658676 208.5297966 C258.45444692 208.5401949 262.12181556 208.53221864 265.78965759 208.51948547 C267.39791685 208.5305469 267.39791685 208.5305469 269.03866619 208.54183179 C277.15472549 208.48232182 280.14682842 206.99233173 285.99389648 201.14526367 C285.99389648 197.18526367 285.99389648 193.22526367 285.99389648 189.14526367 C187.65389648 189.14526367 89.31389648 189.14526367 -12.00610352 189.14526367 Z M120.99389648 218.14526367 C120.00389648 220.55838867 119.01389648 222.97151367 117.99389648 225.45776367 C117.6806543 226.21355713 117.36741211 226.96935059 117.04467773 227.74804688 C115.85018805 230.69753579 114.99389648 232.93502487 114.99389648 236.14526367 C129.51389648 236.14526367 144.03389648 236.14526367 158.99389648 236.14526367 C158.00389648 233.17526367 157.01389648 230.20526367 155.99389648 227.14526367 C155.00389648 224.17526367 154.01389648 221.20526367 152.99389648 218.14526367 C142.43389648 218.14526367 131.87389648 218.14526367 120.99389648 218.14526367 Z " fill="#1A1A1A" transform="translate(113.006103515625,162.854736328125)"/>
<path d="M0 0 C7.62725447 3.94324963 12.01710355 8.43072323 14.93359375 16.50390625 C16.56798706 21.95497938 17.84742308 27.48756427 16.44140625 33.08203125 C15.86147458 36.21727218 15.86147458 36.21727218 17.87890625 38.7265625 C18.68070313 39.53996094 19.4825 40.35335937 20.30859375 41.19140625 C21.14261719 42.0525 21.97664063 42.91359375 22.8359375 43.80078125 C23.61066406 44.5690625 24.38539063 45.33734375 25.18359375 46.12890625 C26.07046875 47.05703125 26.95734375 47.98515625 27.87109375 48.94140625 C29.70008038 50.67152873 31.53899064 52.24162096 33.49609375 53.81640625 C34.82640625 54.96109375 34.82640625 54.96109375 36.18359375 56.12890625 C36.18359375 56.78890625 36.18359375 57.44890625 36.18359375 58.12890625 C36.84359375 58.12890625 37.50359375 58.12890625 38.18359375 58.12890625 C39.734375 59.703125 39.734375 59.703125 41.49609375 61.81640625 C45.90390183 66.98762851 50.54660009 71.52886234 55.828125 75.796875 C56.49908203 76.45623047 56.49908203 76.45623047 57.18359375 77.12890625 C57.18359375 77.78890625 57.18359375 78.44890625 57.18359375 79.12890625 C57.84359375 79.12890625 58.50359375 79.12890625 59.18359375 79.12890625 C59.18359375 79.78890625 59.18359375 80.44890625 59.18359375 81.12890625 C59.84359375 81.12890625 60.50359375 81.12890625 61.18359375 81.12890625 C61.18359375 81.78890625 61.18359375 82.44890625 61.18359375 83.12890625 C63.16359375 84.11890625 63.16359375 84.11890625 65.18359375 85.12890625 C65.18359375 85.78890625 65.18359375 86.44890625 65.18359375 87.12890625 C65.84359375 87.12890625 66.50359375 87.12890625 67.18359375 87.12890625 C67.18359375 87.78890625 67.18359375 88.44890625 67.18359375 89.12890625 C67.84359375 89.12890625 68.50359375 89.12890625 69.18359375 89.12890625 C70.83984375 90.80859375 70.83984375 90.80859375 72.68359375 93.00390625 C74.47292633 95.11926129 76.22378499 97.16909749 78.18359375 99.12890625 C81.17102585 99.25778996 81.17102585 99.25778996 84.62109375 99.06640625 C95.10997538 98.92655449 103.00777813 100.98239323 111.05859375 107.69140625 C112.18359375 109.12890625 112.18359375 109.12890625 112.18359375 112.12890625 C112.84359375 112.12890625 113.50359375 112.12890625 114.18359375 112.12890625 C118.55118839 121.85950081 120.86985661 130.70957143 117.18359375 141.12890625 C115.98046875 142.98046875 115.98046875 142.98046875 114.18359375 144.12890625 C111.52734375 144.35546875 111.52734375 144.35546875 108.18359375 143.12890625 C104.27430749 139.76514662 100.90659962 135.86232401 97.4609375 132.03515625 C95.44325974 129.89114804 93.53899552 127.89661218 91.18359375 126.12890625 C87.75062772 125.87712308 87.75062772 125.87712308 85.18359375 127.12890625 C84.19359375 130.09890625 84.19359375 130.09890625 83.18359375 133.12890625 C83.82296875 133.39703125 84.46234375 133.66515625 85.12109375 133.94140625 C87.18359375 135.12890625 87.18359375 135.12890625 88.18359375 138.12890625 C89.17359375 138.45890625 90.16359375 138.78890625 91.18359375 139.12890625 C91.18359375 139.78890625 91.18359375 140.44890625 91.18359375 141.12890625 C91.84359375 141.12890625 92.50359375 141.12890625 93.18359375 141.12890625 C93.18359375 141.78890625 93.18359375 142.44890625 93.18359375 143.12890625 C94.17359375 143.45890625 95.16359375 143.78890625 96.18359375 144.12890625 C96.18359375 144.78890625 96.18359375 145.44890625 96.18359375 146.12890625 C96.80234375 146.39703125 97.42109375 146.66515625 98.05859375 146.94140625 C100.18359375 148.12890625 100.18359375 148.12890625 102.18359375 151.12890625 C101.80859375 154.81640625 101.80859375 154.81640625 101.18359375 158.12890625 C96.88524748 160.24037459 92.94501995 160.43126197 88.24609375 160.37890625 C87.55580078 160.38664063 86.86550781 160.394375 86.15429688 160.40234375 C81.78939357 160.38579435 78.23843877 159.72800006 74.18359375 158.12890625 C74.18359375 157.46890625 74.18359375 156.80890625 74.18359375 156.12890625 C73.62671875 156.04640625 73.06984375 155.96390625 72.49609375 155.87890625 C69.44681456 154.88995084 67.53169412 153.28133159 65.18359375 151.12890625 C65.18359375 150.46890625 65.18359375 149.80890625 65.18359375 149.12890625 C64.52359375 149.12890625 63.86359375 149.12890625 63.18359375 149.12890625 C58.79841466 140.76308489 56.54196014 133.35800334 57.51976013 123.86534119 C57.0872645 119.05822218 55.0270149 116.91697111 51.76196289 113.64282227 C51.18454849 113.0370787 50.60713409 112.43133514 50.01222229 111.80723572 C48.09986733 109.81319646 46.16188513 107.84684154 44.21875 105.8828125 C42.86912385 104.50305182 41.51979879 103.12299657 40.17076111 101.74266052 C37.33612575 98.85258135 34.4866092 95.9781027 31.62817383 93.11157227 C27.98630225 89.45369691 24.40290196 85.74387029 20.83121586 82.0176096 C18.06065376 79.14612843 15.25198838 76.31428989 12.43179131 73.49162102 C11.09463908 72.14075941 9.77132563 70.77603997 8.46315193 69.39709663 C-0.04272185 60.31118968 -0.04272185 60.31118968 -11.67372227 57.3159399 C-13.84075887 57.40207334 -15.9655807 57.58882171 -18.12013245 57.83164978 C-24.66186809 58.35773993 -28.69606555 55.60016306 -33.87890625 52.00390625 C-34.83796875 51.07578125 -34.83796875 51.07578125 -35.81640625 50.12890625 C-35.81640625 49.46890625 -35.81640625 48.80890625 -35.81640625 48.12890625 C-36.47640625 48.12890625 -37.13640625 48.12890625 -37.81640625 48.12890625 C-43.64530081 38.91319221 -45.79622986 31.46933238 -44.19140625 20.62890625 C-43.40245091 17.27584603 -43.04860519 16.3427737 -40.44140625 13.94140625 C-37.67865264 13.08626823 -36.46241547 13.05090249 -33.81640625 14.12890625 C-33.81640625 14.78890625 -33.81640625 15.44890625 -33.81640625 16.12890625 C-33.15640625 16.12890625 -32.49640625 16.12890625 -31.81640625 16.12890625 C-31.81640625 16.78890625 -31.81640625 17.44890625 -31.81640625 18.12890625 C-30.82640625 18.45890625 -29.83640625 18.78890625 -28.81640625 19.12890625 C-28.81640625 19.78890625 -28.81640625 20.44890625 -28.81640625 21.12890625 C-28.17703125 21.39703125 -27.53765625 21.66515625 -26.87890625 21.94140625 C-24.81640625 23.12890625 -24.81640625 23.12890625 -23.81640625 26.12890625 C-22.82640625 26.45890625 -21.83640625 26.78890625 -20.81640625 27.12890625 C-20.81640625 27.78890625 -20.81640625 28.44890625 -20.81640625 29.12890625 C-20.15640625 29.12890625 -19.49640625 29.12890625 -18.81640625 29.12890625 C-18.81640625 29.78890625 -18.81640625 30.44890625 -18.81640625 31.12890625 C-15.49105868 32.23735544 -13.1945805 31.97344981 -9.81640625 31.12890625 C-9.50105841 27.63004686 -9.34141068 25.77233996 -11.46875 22.890625 C-12.22285156 22.20613281 -12.97695312 21.52164063 -13.75390625 20.81640625 C-14.56601563 20.05070312 -15.378125 19.285 -16.21484375 18.49609375 C-17.07335937 17.71492188 -17.931875 16.93375 -18.81640625 16.12890625 C-20.51742402 14.58113332 -22.20559891 13.01909603 -23.87890625 11.44140625 C-24.63300781 10.75691406 -25.38710937 10.07242188 -26.1640625 9.3671875 C-28.32262331 6.44317959 -28.30453596 4.68249057 -27.81640625 1.12890625 C-19.75692841 -5.18798179 -8.83399667 -4.05657127 0 0 Z M-12.81640625 7.12890625 C-12.15640625 7.45890625 -11.49640625 7.78890625 -10.81640625 8.12890625 C-10.81640625 8.78890625 -10.81640625 9.44890625 -10.81640625 10.12890625 C-9.16637797 11.48277561 -7.49896755 12.81568767 -5.81640625 14.12890625 C-5.48640625 14.78890625 -5.15640625 15.44890625 -4.81640625 16.12890625 C-4.15640625 16.12890625 -3.49640625 16.12890625 -2.81640625 16.12890625 C-2.81640625 16.78890625 -2.81640625 17.44890625 -2.81640625 18.12890625 C-1.48307292 19.79557292 -1.48307292 19.79557292 0.18359375 21.12890625 C0.84359375 21.12890625 1.50359375 21.12890625 2.18359375 21.12890625 C1.58950732 24.14826317 0.90697996 27.13798249 0.18359375 30.12890625 C-0.05617188 31.23685547 -0.05617188 31.23685547 -0.30078125 32.3671875 C-1.20178434 35.59984048 -1.95394945 37.53089011 -4.765625 39.48046875 C-7.08662119 40.57594743 -9.36069439 41.38849061 -11.81640625 42.12890625 C-13.57984375 42.71671875 -13.57984375 42.71671875 -15.37890625 43.31640625 C-21.28580414 42.99421182 -24.57111605 38.54858792 -28.42578125 34.39453125 C-29.74953907 32.90454415 -29.74953907 32.90454415 -31.81640625 33.12890625 C-31.81640625 32.46890625 -31.81640625 31.80890625 -31.81640625 31.12890625 C-32.47640625 31.12890625 -33.13640625 31.12890625 -33.81640625 31.12890625 C-32.94586281 37.22271031 -30.68624471 40.63490102 -25.87890625 44.37890625 C-20.76114637 48.20490015 -16.11814478 48.5083905 -9.81640625 48.12890625 C-9.15125 47.97292969 -8.48609375 47.81695312 -7.80078125 47.65625 C-5.66217404 47.15527705 -4.01045719 46.95917866 -1.81640625 47.12890625 C-0.17881775 48.15939331 -0.17881775 48.15939331 1.53930664 49.74560547 C2.23903595 50.39068054 2.93876526 51.03575562 3.65969849 51.70037842 C9.32203078 57.14875489 14.92159309 62.65712625 20.4921875 68.19921875 C21.16762163 68.87057735 21.84305576 69.54193596 22.5389576 70.23363876 C26.10272494 73.77667687 29.66330186 77.32288674 33.22143555 80.87158203 C36.89392064 84.53293126 40.57794875 88.18244006 44.26457119 91.82954597 C47.10472541 94.64360706 49.93600668 97.46646862 52.76494026 100.29180527 C54.11997975 101.64197281 55.47839715 102.98875908 56.84023857 104.33206558 C58.73820881 106.20576465 60.62323604 108.09161323 62.50561523 109.98095703 C63.06919739 110.53172913 63.63277954 111.08250122 64.21343994 111.64996338 C67.17961471 114.65640588 69.01888104 116.81907378 69.18359375 121.12890625 C68.52450965 122.79858597 67.85708536 124.4649858 67.18359375 126.12890625 C66.47626693 132.25907204 67.98851071 136.96038956 71.18359375 142.12890625 C75.19380258 146.7942482 79.21433001 148.91068916 85.18359375 150.12890625 C84.52359375 148.80890625 83.86359375 147.48890625 83.18359375 146.12890625 C82.52359375 146.12890625 81.86359375 146.12890625 81.18359375 146.12890625 C80.95671875 145.57203125 80.72984375 145.01515625 80.49609375 144.44140625 C78.80809339 141.46731037 76.71682858 139.4088176 74.18359375 137.12890625 C73.52359375 137.12890625 72.86359375 137.12890625 72.18359375 137.12890625 C72.65386565 130.78023559 73.56374994 124.506417 77.18359375 119.12890625 C82.53646544 115.43400367 88.81845218 114.14121187 95.18359375 115.12890625 C97.55859375 117.62890625 97.55859375 117.62890625 99.18359375 120.12890625 C99.84359375 120.12890625 100.50359375 120.12890625 101.18359375 120.12890625 C101.18359375 120.78890625 101.18359375 121.44890625 101.18359375 122.12890625 C103.51692708 124.79557292 103.51692708 124.79557292 106.18359375 127.12890625 C106.84359375 127.12890625 107.50359375 127.12890625 108.18359375 127.12890625 C107.89484375 125.87078125 107.60609375 124.61265625 107.30859375 123.31640625 C107.14617187 122.60871094 106.98375 121.90101563 106.81640625 121.171875 C106.20351652 118.85147651 106.20351652 118.85147651 104.18359375 116.12890625 C103.52359375 116.12890625 102.86359375 116.12890625 102.18359375 116.12890625 C102.18359375 115.46890625 102.18359375 114.80890625 102.18359375 114.12890625 C92.80299834 107.94170502 84.92519606 108.92969495 74.18359375 111.12890625 C73.85359375 110.13890625 73.52359375 109.14890625 73.18359375 108.12890625 C72.52359375 108.12890625 71.86359375 108.12890625 71.18359375 108.12890625 C71.18359375 107.46890625 71.18359375 106.80890625 71.18359375 106.12890625 C69.85026042 104.46223958 69.85026042 104.46223958 68.18359375 103.12890625 C67.52359375 103.12890625 66.86359375 103.12890625 66.18359375 103.12890625 C65.85359375 102.13890625 65.52359375 101.14890625 65.18359375 100.12890625 C64.52359375 100.12890625 63.86359375 100.12890625 63.18359375 100.12890625 C63.18359375 99.46890625 63.18359375 98.80890625 63.18359375 98.12890625 C62.52359375 98.12890625 61.86359375 98.12890625 61.18359375 98.12890625 C60.85359375 97.13890625 60.52359375 96.14890625 60.18359375 95.12890625 C59.52359375 95.12890625 58.86359375 95.12890625 58.18359375 95.12890625 C58.18359375 94.46890625 58.18359375 93.80890625 58.18359375 93.12890625 C56.53356547 91.77503689 54.86615505 90.44212483 53.18359375 89.12890625 C52.85359375 88.46890625 52.52359375 87.80890625 52.18359375 87.12890625 C51.52359375 87.12890625 50.86359375 87.12890625 50.18359375 87.12890625 C50.18359375 86.46890625 50.18359375 85.80890625 50.18359375 85.12890625 C49.52359375 85.12890625 48.86359375 85.12890625 48.18359375 85.12890625 C47.85359375 84.13890625 47.52359375 83.14890625 47.18359375 82.12890625 C46.52359375 82.12890625 45.86359375 82.12890625 45.18359375 82.12890625 C45.18359375 81.46890625 45.18359375 80.80890625 45.18359375 80.12890625 C43.85026042 78.46223958 43.85026042 78.46223958 42.18359375 77.12890625 C41.52359375 77.12890625 40.86359375 77.12890625 40.18359375 77.12890625 C39.85359375 76.13890625 39.52359375 75.14890625 39.18359375 74.12890625 C38.52359375 74.12890625 37.86359375 74.12890625 37.18359375 74.12890625 C37.18359375 73.46890625 37.18359375 72.80890625 37.18359375 72.12890625 C36.52359375 72.12890625 35.86359375 72.12890625 35.18359375 72.12890625 C35.18359375 71.46890625 35.18359375 70.80890625 35.18359375 70.12890625 C33.53356547 68.77503689 31.86615505 67.44212483 30.18359375 66.12890625 C29.85359375 65.46890625 29.52359375 64.80890625 29.18359375 64.12890625 C28.52359375 64.12890625 27.86359375 64.12890625 27.18359375 64.12890625 C26.85359375 63.13890625 26.52359375 62.14890625 26.18359375 61.12890625 C25.52359375 61.12890625 24.86359375 61.12890625 24.18359375 61.12890625 C24.18359375 60.46890625 24.18359375 59.80890625 24.18359375 59.12890625 C23.52359375 59.12890625 22.86359375 59.12890625 22.18359375 59.12890625 C21.85359375 58.13890625 21.52359375 57.14890625 21.18359375 56.12890625 C20.52359375 56.12890625 19.86359375 56.12890625 19.18359375 56.12890625 C19.18359375 55.46890625 19.18359375 54.80890625 19.18359375 54.12890625 C17.85026042 52.46223958 17.85026042 52.46223958 16.18359375 51.12890625 C15.52359375 51.12890625 14.86359375 51.12890625 14.18359375 51.12890625 C13.85359375 50.13890625 13.52359375 49.14890625 13.18359375 48.12890625 C12.52359375 48.12890625 11.86359375 48.12890625 11.18359375 48.12890625 C11.18359375 47.46890625 11.18359375 46.80890625 11.18359375 46.12890625 C10.52359375 46.12890625 9.86359375 46.12890625 9.18359375 46.12890625 C8.85359375 45.13890625 8.52359375 44.14890625 8.18359375 43.12890625 C7.52359375 43.12890625 6.86359375 43.12890625 6.18359375 43.12890625 C5.05859375 37.50390625 5.05859375 37.50390625 6.18359375 34.12890625 C7.05030933 25.88272661 6.2879988 19.78867018 1.18359375 13.12890625 C-2.79672135 8.81689822 -7.22778763 8.05425487 -12.81640625 7.12890625 Z " fill="#1B1B1B" transform="translate(212.81640625,93.87109375)"/>
<path d="M0 0 C7.55191721 1.07884532 13.58434913 5.92201624 18.34375 11.69140625 C21.97299718 17.36823546 22.24559034 22.93696407 21.5 29.5 C19.01628712 37.4613067 13.35372693 42.19649704 6.5 46.5 C6.81049726 47.93793392 7.1234776 49.3753318 7.4375 50.8125 C7.61152344 51.61300781 7.78554687 52.41351563 7.96484375 53.23828125 C8.49886159 55.645401 8.49886159 55.645401 9.5 58.5 C10.06847656 58.355625 10.63695312 58.21125 11.22265625 58.0625 C20.85850184 55.74603628 28.68043639 56.00826184 37.3125 61.1875 C43.61982186 67.85524025 43.90879306 74.24276069 43.73828125 83.109375 C43.5 86.5 43.5 86.5 42.5 90.5 C46.46 92.15 50.42 93.8 54.5 95.5 C55.16 93.85 55.82 92.2 56.5 90.5 C59.25351072 84.70313533 63.71046623 81.74638743 69.4375 79.1875 C76.37873521 77.62926352 81.22052979 78.12769192 87.5 81.5 C89.70802375 83.05000343 91.53114055 84.62718247 93.5 86.5 C93.5 87.16 93.5 87.82 93.5 88.5 C94.16 88.5 94.82 88.5 95.5 88.5 C99.06483487 93.84725231 100.15460854 97.06301598 99.5 103.5 C98.84 104.16 98.18 104.82 97.5 105.5 C94.87113554 105.29777966 93.0915048 104.92588346 90.9375 103.375 C89.6002945 101.63081891 88.57043104 99.91465778 87.5 98 C85.15132648 93.82164822 83.74890454 92.0184132 79.1875 90.125 C74.78891434 89.37947701 73.2386304 90.23943278 69.5 92.5 C68.84 92.5 68.18 92.5 67.5 92.5 C67.273125 93.16 67.04625 93.82 66.8125 94.5 C62.37012987 104.65398887 62.37012987 104.65398887 57.875 106.6875 C48.61461482 106.17303416 40.14531145 102.67777707 32.5 97.5 C29.91227414 93.6184112 30.62280201 91.96573523 31.5 87.5 C31.995 86.015 31.995 86.015 32.5 84.5 C32.61792999 82.85720783 32.67511674 81.20947306 32.6875 79.5625 C32.70167969 78.70785156 32.71585938 77.85320312 32.73046875 76.97265625 C32.48277952 74.31524472 31.90770059 72.75133997 30.5 70.5 C26.88795645 67.5253759 23.920782 67.1016887 19.40625 67.26171875 C17.35198209 67.43675012 17.35198209 67.43675012 15 68.5 C11.29357588 69.98256965 8.48894311 69.82168896 4.5 69.5 C-2.13318535 64.62118357 -4.90898603 53.32892739 -6.46875 45.62109375 C-6.50812321 42.94863728 -6.02026457 41.69644194 -4.5 39.5 C-2.44140625 38.05078125 -2.44140625 38.05078125 -0.0625 36.8125 C0.71996094 36.39613281 1.50242188 35.97976562 2.30859375 35.55078125 C4.5 34.5 4.5 34.5 7.5 33.5 C8.65521502 31.02869082 8.65521502 31.02869082 9.5 28.5 C9.83 28.17 10.16 27.84 10.5 27.5 C10.97786765 23.39033819 10.55691765 20.48369765 8.12109375 17.06640625 C5.13849819 14.18442838 1.40379791 12.34914862 -2.234375 10.40625 C-4.5 8.5 -4.5 8.5 -4.953125 5.40625 C-4.37870426 1.72203423 -3.68341986 0.73668397 0 0 Z " fill="#1A1A1A" transform="translate(173.5,148.5)"/>
<path d="M0 0 C3.74224174 0.76763933 4.92904765 1.90987134 7.3125 4.9375 C9 8 9 8 9 11 C9.66 11 10.32 11 11 11 C11 11.66 11 12.32 11 13 C16.39335057 14.9840791 16.39335057 14.9840791 22 16 C24.67676547 14.62750037 24.67676547 14.62750037 27 13 C27.66 13 28.32 13 29 13 C29 12.34 29 11.68 29 11 C29.66 11 30.32 11 31 11 C31.103125 10.46375 31.20625 9.9275 31.3125 9.375 C32.25876145 6.1060968 33.55558536 2.44441464 36 0 C46.05040286 -2.00552257 56.82867873 3.55245249 65 9 C66.47058215 15.10857202 66.47058215 15.10857202 65.0390625 17.8203125 C63.63349769 20.76882815 63.62594186 23.24580552 63.5625 26.5 C63.52253906 27.6240625 63.48257813 28.748125 63.44140625 29.90625 C63.72434839 33.18457887 63.72434839 33.18457887 66.40234375 35.34375 C70.68274464 38.07290786 73.97277116 38.41578584 79 38 C79.99 37.649375 80.98 37.29875 82 36.9375 C85.07272701 35.97727281 87.75453784 35.3141707 90.9765625 35.8203125 C97.24385817 39.47421847 100.03172892 50.53327573 102.125 57.0625 C102.85863806 60.23385948 103.08036931 61.69191764 102.25 64.875 C98.85048084 68.08565698 93.854485 72 89 72 C88.5359375 73.175625 88.5359375 73.175625 88.0625 74.375 C87 77 87 77 86 79 C85.58569179 83.66096733 86.08509796 86.30779075 89 90 C91.85251385 92.17946646 91.85251385 92.17946646 95 94 C100 97 100 97 101 98 C101.1875 100.4375 101.1875 100.4375 101 103 C99 105 99 105 95.9375 105.4375 C90.79538163 104.86615351 87.31213658 102.73786449 83 100 C83 99.34 83 98.68 83 98 C82.34 98 81.68 98 81 98 C75.58207101 92.07414017 74.51056778 86.91311288 74.703125 79.06640625 C75.28477399 73.05858446 76.81129814 68.90628871 81.421875 64.890625 C88.1905 60 88.1905 60 91 60 C90.71125 59.22914063 90.4225 58.45828125 90.125 57.6640625 C89.75375 56.66117188 89.3825 55.65828125 89 54.625 C88.62875 53.62726563 88.2575 52.62953125 87.875 51.6015625 C87 49 87 49 87 47 C86.31550781 47.32226562 85.63101563 47.64453125 84.92578125 47.9765625 C78.90648399 50.08211108 71.51083114 50.07658417 65.4140625 48.20703125 C62.1331986 46.61538538 59.38708661 44.74767371 57 42 C57 41.34 57 40.68 57 40 C56.34 40 55.68 40 55 40 C52.35618704 35.05586159 52.77495972 30.13199976 52.875 24.6875 C52.88402344 23.75615234 52.89304687 22.82480469 52.90234375 21.86523438 C52.92581578 19.57671177 52.96168391 17.28832221 53 15 C49.37 13.35 45.74 11.7 42 10 C41.34 11.65 40.68 13.3 40 15 C35.89611014 21.10467826 31.14745553 25.07799515 24 27 C17.49386907 28.06403504 12.40557015 26.71703776 7 23 C4.74151337 21.11230968 2.94611376 19.23803083 1 17 C1 16.34 1 15.68 1 15 C0.34 15 -0.32 15 -1 15 C-2.7072444 12.02082452 -3.29529611 9.80430948 -3.3125 6.375 C-3.32925781 5.59898438 -3.34601563 4.82296875 -3.36328125 4.0234375 C-3.24339844 3.35570313 -3.12351563 2.68796875 -3 2 C-2.01 1.34 -1.02 0.68 0 0 Z " fill="#1B1B1B" transform="translate(230,91)"/>
<path d="M0 0 C2.85136493 1.88838336 3.23441043 3.39616217 3.92626953 6.67431641 C4.11552002 7.67470947 4.11552002 7.67470947 4.30859375 8.6953125 C6.04955251 16.21446874 8.05796452 21.67499392 14.62890625 26.0859375 C19.71873373 28.86220704 24.60411202 30.27143196 30.33984375 31.015625 C32.37109375 31.5703125 32.37109375 31.5703125 34.37109375 34.5703125 C34.12109375 37.6953125 34.12109375 37.6953125 33.37109375 40.5703125 C28.92793309 42.79189283 23.0900873 41.42553463 18.37109375 40.5703125 C14.16569923 38.89374326 10.2689027 36.86685939 6.37109375 34.5703125 C6.37109375 33.9103125 6.37109375 33.2503125 6.37109375 32.5703125 C5.38109375 32.2403125 4.39109375 31.9103125 3.37109375 31.5703125 C-4.87701156 21.95377153 -7.19009588 14.04119327 -6.62890625 1.5703125 C-4.12598139 -0.09830408 -3.01510745 -0.49281102 0 0 Z " fill="#212121" transform="translate(220.62890625,167.4296875)"/>
<path d="M0 0 C8.8188093 2.21741687 15.86866136 6.5554644 21.38671875 13.8515625 C24.83682354 20.12526051 27.52151948 26.20450838 27.63671875 33.4140625 C27.6625 34.38472656 27.68828125 35.35539062 27.71484375 36.35546875 C27.6065625 37.17917969 27.49828125 38.00289062 27.38671875 38.8515625 C24.38671875 40.8515625 24.38671875 40.8515625 21.82421875 40.5390625 C19.38671875 39.8515625 19.38671875 39.8515625 17.38671875 38.8515625 C17.11328125 37.1015625 17.11328125 37.1015625 17.01171875 34.8515625 C16.50609697 29.19943333 14.86032293 23.32516668 10.75390625 19.21875 C10.30273438 18.76757812 9.8515625 18.31640625 9.38671875 17.8515625 C9.38671875 17.1915625 9.38671875 16.5315625 9.38671875 15.8515625 C7.72366035 15.17594502 6.0557727 14.51222969 4.38671875 13.8515625 C3.79375 13.61050781 3.20078125 13.36945313 2.58984375 13.12109375 C-2.39178395 11.15833244 -7.36338331 9.88452853 -12.61328125 8.8515625 C-12.94328125 6.5415625 -13.27328125 4.2315625 -13.61328125 1.8515625 C-9.21034846 -2.31739801 -5.59116572 -1.03934324 0 0 Z " fill="#1E1E1E" transform="translate(258.61328125,137.1484375)"/>
<path d="M0 0 C0.66 0 1.32 0 2 0 C2 0.66 2 1.32 2 2 C2.66 2 3.32 2 4 2 C5.68873879 3.64429829 7.35305515 5.31384218 9 7 C11.66872375 9.40577002 11.66872375 9.40577002 15 10 C15 10.66 15 11.32 15 12 C15.66 12 16.32 12 17 12 C18.65625 13.609375 18.65625 13.609375 20.5 15.75 C21.1084375 16.44609375 21.716875 17.1421875 22.34375 17.859375 C24.74868975 20.96764619 26.40814474 24.09375527 27 28 C26.71395102 29.67542976 26.38218767 31.34385343 26 33 C26 33.99 26 34.98 26 36 C25.34 36 24.68 36 24 36 C24 35.34 24 34.68 24 34 C22.515 33.505 22.515 33.505 21 33 C21 32.34 21 31.68 21 31 C20.34 31 19.68 31 19 31 C17.375 29.625 17.375 29.625 16 28 C16 27.34 16 26.68 16 26 C15.34 26 14.68 26 14 26 C14 25.34 14 24.68 14 24 C13.38125 23.7525 12.7625 23.505 12.125 23.25 C9.64931313 21.79371361 9.04874998 20.62187494 8 18 C7.34 18 6.68 18 6 18 C4.375 16.625 4.375 16.625 3 15 C3 14.34 3 13.68 3 13 C2.34 13 1.68 13 1 13 C-0.625 11.625 -0.625 11.625 -2 10 C-2 9.34 -2 8.68 -2 8 C-2.99 7.67 -3.98 7.34 -5 7 C-5 6.34 -5 5.68 -5 5 C-5.66 5 -6.32 5 -7 5 C-7 4.01 -7 3.02 -7 2 C-6.01 2.33 -5.02 2.66 -4 3 C-1.85744207 2.61067144 -1.85744207 2.61067144 0 2 C0 1.34 0 0.68 0 0 Z " fill="#1F1F1F" transform="translate(234,140)"/>
<path d="M0 0 C0 0.66 0 1.32 0 2 C0.66 2 1.32 2 2 2 C2 2.66 2 3.32 2 4 C2.99 4.33 3.98 4.66 5 5 C4.67 5.66 4.34 6.32 4 7 C3.67 7.99 3.34 8.98 3 10 C2.01 10.33 1.02 10.66 0 11 C0 11.66 0 12.32 0 13 C0.66 13.33 1.32 13.66 2 14 C2 14.99 2 15.98 2 17 C1.34 17 0.68 17 0 17 C0.62146808 18.43903046 1.24732059 19.87616793 1.875 21.3125 C2.22304687 22.11300781 2.57109375 22.91351563 2.9296875 23.73828125 C4.02571894 26.1961834 4.02571894 26.1961834 6 29 C5.01 29.33 4.02 29.66 3 30 C2.01 31.485 2.01 31.485 1 33 C-1.6875 33.0625 -1.6875 33.0625 -5 32 C-10.01638667 26.28025753 -11.17628428 19.39357017 -11 12 C-10.30441286 3.2014329 -10.30441286 3.2014329 -6.625 -0.1875 C-3.86224639 -1.04263802 -2.64600922 -1.07800376 0 0 Z " fill="#161616" transform="translate(179,108)"/>
<path d="M0 0 C3.41394655 2.26292693 3.78759735 5.09192365 4.57421875 8.89453125 C5.57152842 13.26996217 6.61667681 17.44205869 8.38671875 21.58203125 C9.13671875 24.20703125 9.13671875 24.20703125 9.38671875 26.58203125 C8.72671875 27.57203125 8.06671875 28.56203125 7.38671875 29.58203125 C4.95703125 29.98828125 4.95703125 29.98828125 2.38671875 29.58203125 C-2.14395871 25.65683603 -5.44792803 19.43867821 -6.61328125 13.58203125 C-6.83578079 9.56715072 -6.79398664 5.59770656 -6.61328125 1.58203125 C-4.12200939 -0.07881666 -3.00151808 -0.48006343 0 0 Z " fill="#191919" transform="translate(220.61328125,167.41796875)"/>
<path d="M0 0 C7.55191721 1.07884532 13.58434913 5.92201624 18.34375 11.69140625 C21.02419014 15.88412174 21.74419034 19.36610074 21.625 24.3125 C21.60695312 25.28832031 21.58890625 26.26414063 21.5703125 27.26953125 C21.54710937 28.00558594 21.52390625 28.74164063 21.5 29.5 C20.84 29.83 20.18 30.16 19.5 30.5 C19.5 29.84 19.5 29.18 19.5 28.5 C18.84 28.17 18.18 27.84 17.5 27.5 C17.83 27.17 18.16 26.84 18.5 26.5 C18.57148199 25.14756083 18.58399454 23.79165633 18.5625 22.4375 C18.541875 21.138125 18.52125 19.83875 18.5 18.5 C16.85 18.83 15.2 19.16 13.5 19.5 C13.83 18.84 14.16 18.18 14.5 17.5 C13.84 17.17 13.18 16.84 12.5 16.5 C12.17 17.49 11.84 18.48 11.5 19.5 C10.84 19.5 10.18 19.5 9.5 19.5 C9.005 18.79875 8.51 18.0975 8 17.375 C5.47574629 14.47210823 3.5910703 13.3510108 0.25 11.5625 C-2.40625 10.05078125 -2.40625 10.05078125 -4.5 8.5 C-5.25 5.25 -5.25 5.25 -4.5 2.5 C-2.5 0.5 -2.5 0.5 0 0 Z " fill="#212121" transform="translate(173.5,148.5)"/>
<path d="M0 0 C1.1055189 0.93590504 2.20935453 1.87379858 3.3125 2.8125 C3.92738281 3.33457031 4.54226563 3.85664063 5.17578125 4.39453125 C8.51952278 7.3373102 8.51952278 7.3373102 10 9 C10 9.66 10 10.32 10 11 C10.66 11 11.32 11 12 11 C12 11.66 12 12.32 12 13 C12.66 13 13.32 13 14 13 C14 13.66 14 14.32 14 15 C15.32 15.66 16.64 16.32 18 17 C18 17.66 18 18.32 18 19 C18.66 19 19.32 19 20 19 C20 19.66 20 20.32 20 21 C20.66 21 21.32 21 22 21 C23.65625 22.609375 23.65625 22.609375 25.5 24.75 C26.1084375 25.44609375 26.716875 26.1421875 27.34375 26.859375 C28.87976963 28.84460792 29.9723966 30.71872045 31 33 C30.278125 32.38125 29.55625 31.7625 28.8125 31.125 C25.21562528 28.40736132 22.52854666 27 18 27 C17.01 26.67 16.02 26.34 15 26 C14.67 25.34 14.34 24.68 14 24 C13.34 24.66 12.68 25.32 12 26 C11 23 11 23 11 22 C9.68 22.33 8.36 22.66 7 23 C6.34 21.68 5.68 20.36 5 19 C4.34 19 3.68 19 3 19 C3 18.34 3 17.68 3 17 C2.34 17 1.68 17 1 17 C-0.61511451 12.45749044 -1.56221947 9.6866584 0 5 C-0.31478446 3.66216607 -0.64587656 2.32796291 -1 1 C-0.67 0.67 -0.34 0.34 0 0 Z " fill="#1A1A1A" transform="translate(260,162)"/>
<path d="M0 0 C1.85625 -0.00773437 1.85625 -0.00773437 3.75 -0.015625 C7 0.25 7 0.25 10 2.25 C10.25 5.8125 10.25 5.8125 10 9.25 C8.4779041 10.7720959 7.11789918 10.37959521 5 10.3828125 C4.195625 10.38410156 3.39125 10.38539063 2.5625 10.38671875 C1.716875 10.38285156 0.87125 10.37898438 0 10.375 C-0.845625 10.37886719 -1.69125 10.38273437 -2.5625 10.38671875 C-3.366875 10.38542969 -4.17125 10.38414062 -5 10.3828125 C-5.7425 10.38168457 -6.485 10.38055664 -7.25 10.37939453 C-9 10.25 -9 10.25 -10 9.25 C-10.25 5.8125 -10.25 5.8125 -10 2.25 C-6.32077133 -0.20281911 -4.37740649 -0.01823919 0 0 Z " fill="#191919" transform="translate(250,355.75)"/>
<path d="M0 0 C0.66 0.33 1.32 0.66 2 1 C2 1.99 2 2.98 2 4 C2.99 4 3.98 4 5 4 C5.639375 4.515625 6.27875 5.03125 6.9375 5.5625 C8.89558235 7.27412216 8.89558235 7.27412216 11.25 6.6875 C12.11625 6.3471875 12.11625 6.3471875 13 6 C14.65 7.98 16.3 9.96 18 12 C17.01 13.485 17.01 13.485 16 15 C16.33 15.99 16.66 16.98 17 18 C16.34 18.99 15.68 19.98 15 21 C14.34 20.67 13.68 20.34 13 20 C13 19.34 13 18.68 13 18 C12.01 17.67 11.02 17.34 10 17 C10 16.34 10 15.68 10 15 C9.34 15 8.68 15 8 15 C6.375 13.625 6.375 13.625 5 12 C5 11.34 5 10.68 5 10 C4.34 10 3.68 10 3 10 C1.375 8.625 1.375 8.625 0 7 C0 6.34 0 5.68 0 5 C-0.99 4.67 -1.98 4.34 -3 4 C-2.01 2.68 -1.02 1.36 0 0 Z " fill="#202020" transform="translate(271,182)"/>
<path d="M0 0 C0.33 0.66 0.66 1.32 1 2 C1.66 2 2.32 2 3 2 C3 2.66 3 3.32 3 4 C3.66 4 4.32 4 5 4 C5 4.66 5 5.32 5 6 C6.32 6.66 7.64 7.32 9 8 C9 8.66 9 9.32 9 10 C9.66 10 10.32 10 11 10 C11 10.66 11 11.32 11 12 C11.66 12 12.32 12 13 12 C14.65625 13.609375 14.65625 13.609375 16.5 15.75 C17.1084375 16.44609375 17.716875 17.1421875 18.34375 17.859375 C19.87976963 19.84460792 20.9723966 21.71872045 22 24 C21.278125 23.38125 20.55625 22.7625 19.8125 22.125 C16.21562528 19.40736132 13.52854666 18 9 18 C8.01 17.67 7.02 17.34 6 17 C5.67 16.34 5.34 15.68 5 15 C4.34 15.66 3.68 16.32 3 17 C2.67 16.01 2.34 15.02 2 14 C2.66 13.01 3.32 12.02 4 11 C5.32 11.33 6.64 11.66 8 12 C8 11.01 8 10.02 8 9 C7.4225 8.938125 6.845 8.87625 6.25 8.8125 C3.05289959 7.65799152 1.8563468 5.78452021 0 3 C0 2.01 0 1.02 0 0 Z " fill="#101010" transform="translate(269,171)"/>
<path d="M0 0 C4.24822374 0.47202486 6.19989709 2.96655518 9 6 C7.71792641 8.86001033 6.50848764 11.07039412 4 13 C2.68 13 1.36 13 0 13 C-0.39222105 11.58800422 -0.76311059 10.17007236 -1.125 8.75 C-1.33382812 7.96109375 -1.54265625 7.1721875 -1.7578125 6.359375 C-2.04314411 3.5796929 -1.44977894 2.34112451 0 0 Z " fill="#131313" transform="translate(211,142)"/>
<path d="M0 0 C2.125 0.375 2.125 0.375 4 1 C4.95857987 4.72781062 4.88258542 7.27352821 4 11 C4 11.99 4 12.98 4 14 C3.34 14 2.68 14 2 14 C2 13.34 2 12.68 2 12 C1.01 11.67 0.02 11.34 -1 11 C-1 10.34 -1 9.68 -1 9 C-1.66 9 -2.32 9 -3 9 C-4.625 7.625 -4.625 7.625 -6 6 C-6 5.34 -6 4.68 -6 4 C-6.66 3.67 -7.32 3.34 -8 3 C-5.92446352 2.4465236 -4.15634036 2 -2 2 C-1.34 1.34 -0.68 0.68 0 0 Z " fill="#292929" transform="translate(256,162)"/>
<path d="M0 0 C1.52889729 2.29334594 2.89775099 4.5116544 4.1875 6.9375 C4.55230469 7.60652344 4.91710937 8.27554688 5.29296875 8.96484375 C6.13595069 11.39132766 5.83853936 12.61256629 5 15 C4.01 15 3.02 15 2 15 C-1.09405941 8.56435644 -1.09405941 8.56435644 -0.625 5.75 C-0.41875 5.1725 -0.2125 4.595 0 4 C-0.33 3.01 -0.66 2.02 -1 1 C-0.67 0.67 -0.34 0.34 0 0 Z " fill="#121212" transform="translate(313,170)"/>
<path d="M0 0 C-0.33 2.31 -0.66 4.62 -1 7 C-2.32 7.33 -3.64 7.66 -5 8 C-4.67 9.32 -4.34 10.64 -4 12 C-4.66 12 -5.32 12 -6 12 C-6 8.7 -6 5.4 -6 2 C-2 0 -2 0 0 0 Z " fill="#111111" transform="translate(220,167)"/>
<path d="M0 0 C3 1 3 1 4.1796875 3.19921875 C5.06563092 6.2240827 5.2007492 8.66890834 5.125 11.8125 C5.10695312 12.78832031 5.08890625 13.76414063 5.0703125 14.76953125 C5.03550781 15.87361328 5.03550781 15.87361328 5 17 C4.34 17.33 3.68 17.66 3 18 C3 17.34 3 16.68 3 16 C2.34 15.67 1.68 15.34 1 15 C1.33 14.67 1.66 14.34 2 14 C2.23192865 12.48530552 2.41215238 10.96245438 2.5625 9.4375 C2.64628906 8.61121094 2.73007813 7.78492188 2.81640625 6.93359375 C2.87699219 6.29550781 2.93757812 5.65742188 3 5 C2.01 4.67 1.02 4.34 0 4 C0 2.68 0 1.36 0 0 Z " fill="#393939" transform="translate(190,161)"/>
<path d="M0 0 C2 2 2 2 2 5 C2.66 5.33 3.32 5.66 4 6 C3 7 3 7 0.0625 7.125 C-3 7 -3 7 -5 6 C-4.1875 3.5625 -4.1875 3.5625 -3 1 C-2.01 0.67 -1.02 0.34 0 0 Z " fill="#2C2C2C" transform="translate(251,140)"/>
<path d="M0 0 C0.66 0.33 1.32 0.66 2 1 C1.67 3.31 1.34 5.62 1 8 C0.67 7.34 0.34 6.68 0 6 C-0.99 6.66 -1.98 7.32 -3 8 C-4.32 8 -5.64 8 -7 8 C-6.25 5.5625 -6.25 5.5625 -5 3 C-2.9375 2.3125 -2.9375 2.3125 -1 2 C-0.67 1.34 -0.34 0.68 0 0 Z " fill="#222222" transform="translate(313,244)"/>
<path d="M0 0 C5.75 2.625 5.75 2.625 8 6 C8.99 6.33 9.98 6.66 11 7 C11 7.99 11 8.98 11 10 C11.99 10.33 12.98 10.66 14 11 C9.15409462 10.55946315 5.51858133 8.25494123 2 5 C2 4.34 2 3.68 2 3 C1.34 3 0.68 3 0 3 C0 2.01 0 1.02 0 0 Z " fill="#2E2E2E" transform="translate(175,139)"/>
<path d="M0 0 C0 0.66 0 1.32 0 2 C-3.46153846 5 -3.46153846 5 -6 5 C-6 5.66 -6 6.32 -6 7 C-6.66 7 -7.32 7 -8 7 C-8.4021875 8.1446875 -8.4021875 8.1446875 -8.8125 9.3125 C-9.94424112 11.87380884 -10.91223401 13.19692938 -13 15 C-12.46455772 10.44874062 -10.82278978 7.58570594 -8 4 C-2.73684211 0 -2.73684211 0 0 0 Z " fill="#060606" transform="translate(241,230)"/>
<path d="M0 0 C1.5625 1.6875 1.5625 1.6875 3 4 C2.6875 6.75 2.6875 6.75 2 9 C2.99 9.33 3.98 9.66 5 10 C4.34 10.66 3.68 11.32 3 12 C1.02 10.68 -0.96 9.36 -3 8 C-2.67 7.34 -2.34 6.68 -2 6 C-1.34 6 -0.68 6 0 6 C-0.2784375 4.7934375 -0.2784375 4.7934375 -0.5625 3.5625 C-0.706875 2.716875 -0.85125 1.87125 -1 1 C-0.67 0.67 -0.34 0.34 0 0 Z " fill="#2F2F2F" transform="translate(317,183)"/>
<path d="M0 0 C0.66 0.33 1.32 0.66 2 1 C2 1.99 2 2.98 2 4 C2.66 3.67 3.32 3.34 4 3 C4.12375 3.78375 4.2475 4.5675 4.375 5.375 C4.79117993 8.14057822 4.79117993 8.14057822 7 10 C7 10.66 7 11.32 7 12 C6.34 12 5.68 12 5 12 C5 11.34 5 10.68 5 10 C4.34 10 3.68 10 3 10 C1.375 8.625 1.375 8.625 0 7 C0 6.34 0 5.68 0 5 C-0.99 4.67 -1.98 4.34 -3 4 C-2.01 2.68 -1.02 1.36 0 0 Z " fill="#3C3C3C" transform="translate(271,182)"/>
<path d="M0 0 C5.23883167 3.4576289 9.12207712 7.07091854 13 12 C12.67 12.66 12.34 13.32 12 14 C10.66079162 12.88200014 9.32877444 11.75538103 8 10.625 C7.2575 9.99851563 6.515 9.37203125 5.75 8.7265625 C5.1725 8.15679687 4.595 7.58703125 4 7 C4 6.34 4 5.68 4 5 C3.34 5 2.68 5 2 5 C1.34 3.35 0.68 1.7 0 0 Z " fill="#070707" transform="translate(234,137)"/>
<path d="M0 0 C1.37478516 0.01740234 1.37478516 0.01740234 2.77734375 0.03515625 C3.69644531 0.04417969 4.61554688 0.05320312 5.5625 0.0625 C6.27277344 0.07410156 6.98304688 0.08570312 7.71484375 0.09765625 C3.08984375 4.09765625 3.08984375 4.09765625 -0.28515625 4.09765625 C-0.61515625 3.43765625 -0.94515625 2.77765625 -1.28515625 2.09765625 C-1.94515625 1.76765625 -2.60515625 1.43765625 -3.28515625 1.09765625 C-2.28515625 0.09765625 -2.28515625 0.09765625 0 0 Z " fill="#212121" transform="translate(268.28515625,90.90234375)"/>
<path d="M0 0 C2.75 -0.25 2.75 -0.25 6 0 C8.375 2 8.375 2 10 4 C8.375 4.6875 8.375 4.6875 6 5 C2.75 3.5625 2.75 3.5625 0 2 C0 1.34 0 0.68 0 0 Z " fill="#303030" transform="translate(229,201)"/>
<path d="M0 0 C4.875 0.875 4.875 0.875 6 2 C6.04092937 4.33297433 6.04241723 6.66705225 6 9 C4.68 9.33 3.36 9.66 2 10 C2.66 9.67 3.32 9.34 4 9 C3.67 7.02 3.34 5.04 3 3 C2.01 2.67 1.02 2.34 0 2 C0 1.34 0 0.68 0 0 Z " fill="#090909" transform="translate(254,356)"/>
<path d="M0 0 C0.33 0.66 0.66 1.32 1 2 C1.66 2 2.32 2 3 2 C3 2.66 3 3.32 3 4 C3.66 4 4.32 4 5 4 C5 4.66 5 5.32 5 6 C6.32 6.66 7.64 7.32 9 8 C8.67 8.99 8.34 9.98 8 11 C8 10.34 8 9.68 8 9 C7.4225 8.938125 6.845 8.87625 6.25 8.8125 C3.05289959 7.65799152 1.8563468 5.78452021 0 3 C0 2.01 0 1.02 0 0 Z " fill="#060606" transform="translate(269,171)"/>
<path d="M0 0 C3.73639216 1.24546405 4.18756513 2.63404953 6 6 C4.02 6.99 2.04 7.98 0 9 C0.185625 8.443125 0.37125 7.88625 0.5625 7.3125 C1.07551165 4.600867 0.6640724 2.65628961 0 0 Z " fill="#0E0E0E" transform="translate(253,156)"/>
<path d="M0 0 C0.99 0.495 0.99 0.495 2 1 C2 1.66 2 2.32 2 3 C2.66 3 3.32 3 4 3 C4 3.66 4 4.32 4 5 C4.99 5.33 5.98 5.66 7 6 C7 6.66 7 7.32 7 8 C6.01 8.33 5.02 8.66 4 9 C2.01388388 7.01388388 1.08545288 5.55856751 0 3 C0 2.01 0 1.02 0 0 Z " fill="#292929" transform="translate(206,107)"/>
<path d="M0 0 C0.99 0.33 1.98 0.66 3 1 C3.73046875 2.84765625 3.73046875 2.84765625 4.1875 5.0625 C4.34605469 5.79597656 4.50460937 6.52945312 4.66796875 7.28515625 C4.83232422 8.13400391 4.83232422 8.13400391 5 9 C3.02 7.35 1.04 5.7 -1 4 C-0.67 2.68 -0.34 1.36 0 0 Z " fill="#262626" transform="translate(277,387)"/>
<path d="M0 0 C0.66 0.33 1.32 0.66 2 1 C1.34 1.66 0.68 2.32 0 3 C0.33 3.66 0.66 4.32 1 5 C-2.96 5 -6.92 5 -11 5 C-11 4.67 -11 4.34 -11 4 C-9.1128125 3.566875 -9.1128125 3.566875 -7.1875 3.125 C-4.1460601 2.42696461 -2.69330122 1.79553415 0 0 Z " fill="#2A2A2A" transform="translate(391,376)"/>
<path d="M0 0 C6.625 0.75 6.625 0.75 10 3 C10 3.66 10 4.32 10 5 C8.51793505 4.745504 7.03931385 4.47088238 5.5625 4.1875 C4.73878906 4.03667969 3.91507812 3.88585937 3.06640625 3.73046875 C2.38449219 3.48941406 1.70257813 3.24835938 1 3 C0.67 2.01 0.34 1.02 0 0 Z " fill="#070707" transform="translate(309,195)"/>
<path d="M0 0 C1.15518918 0.90484792 2.29885406 1.8244206 3.4375 2.75 C4.07558594 3.26046875 4.71367187 3.7709375 5.37109375 4.296875 C7.18810554 6.19667629 7.60423197 7.43586908 8 10 C7.236875 9.360625 6.47375 8.72125 5.6875 8.0625 C3.11753287 5.85767219 3.11753287 5.85767219 0 5 C-0.75 3 -0.75 3 -1 1 C-0.67 0.67 -0.34 0.34 0 0 Z " fill="#060606" transform="translate(260,162)"/>
<path d="M0 0 C3.96 1.98 3.96 1.98 8 4 C7.01 4.99 6.02 5.98 5 7 C3 5.625 3 5.625 1 4 C1 3.34 1 2.68 1 2 C0.34 1.67 -0.32 1.34 -1 1 C-0.67 0.67 -0.34 0.34 0 0 Z " fill="#131313" transform="translate(178,150)"/>
<path d="M0 0 C2.01822917 0.06510417 4.03645833 0.13020833 6.0546875 0.1953125 C6.0546875 0.5253125 6.0546875 0.8553125 6.0546875 1.1953125 C3.7446875 1.5253125 1.4346875 1.8553125 -0.9453125 2.1953125 C-1.2753125 3.8453125 -1.6053125 5.4953125 -1.9453125 7.1953125 C-2.6053125 7.1953125 -3.2653125 7.1953125 -3.9453125 7.1953125 C-4.0703125 4.8203125 -4.0703125 4.8203125 -3.9453125 2.1953125 C-1.9453125 0.1953125 -1.9453125 0.1953125 0 0 Z " fill="#090909" transform="translate(331.9453125,162.8046875)"/>
<path d="M0 0 C3.33537489 1.11179163 4.63707344 2.47411298 7 5 C6.34 5 5.68 5 5 5 C4.67 5.66 4.34 6.32 4 7 C3.34 5.68 2.68 4.36 2 3 C1.34 3 0.68 3 0 3 C0 2.01 0 1.02 0 0 Z " fill="#323232" transform="translate(240,155)"/>
<path d="M0 0 C0.7425 0.185625 1.485 0.37125 2.25 0.5625 C4.94990963 0.99203108 6.44631077 0.85122974 9 0 C8.34 1.32 7.68 2.64 7 4 C5.35 4 3.7 4 2 4 C1.34 2.68 0.68 1.36 0 0 Z " fill="#0F0F0F" transform="translate(221,193)"/>
<path d="M0 0 C2.31 1.98 4.62 3.96 7 6 C6.01 6.495 6.01 6.495 5 7 C2.375 5.8125 2.375 5.8125 0 4 C0 2.68 0 1.36 0 0 Z " fill="#252525" transform="translate(225,154)"/>
<path d="M0 0 C1.32 0 2.64 0 4 0 C4 0.66 4 1.32 4 2 C2.04072937 3.7143618 0.04119788 5.38405168 -2 7 C-2.125 4.625 -2.125 4.625 -2 2 C-1.34 1.34 -0.68 0.68 0 0 Z " fill="#121212" transform="translate(171,149)"/>
<path d="M0 0 C0.66 0 1.32 0 2 0 C2 2 2 2 0.625 3.5 C0.08875 3.995 -0.4475 4.49 -1 5 C-1.66 5.66 -2.32 6.32 -3 7 C-4.32 6.34 -5.64 5.68 -7 5 C-6.21625 4.54625 -5.4325 4.0925 -4.625 3.625 C-1.96301969 2.11571258 -1.96301969 2.11571258 0 0 Z " fill="#1E1E1E" transform="translate(397,365)"/>
<path d="M0 0 C1.65 0.99 3.3 1.98 5 3 C4.67 3.99 4.34 4.98 4 6 C0.535 4.02 0.535 4.02 -3 2 C-2.01 1.34 -1.02 0.68 0 0 Z " fill="#373737" transform="translate(304,217)"/>
<path d="M0 0 C2.31 1.98 4.62 3.96 7 6 C6.34 6.66 5.68 7.32 5 8 C2.5 5.6875 2.5 5.6875 0 3 C0 2.01 0 1.02 0 0 Z " fill="#252525" transform="translate(265,194)"/>
<path d="M0 0 C3.875 0.875 3.875 0.875 5 2 C5.04063832 3.66617115 5.042721 5.33388095 5 7 C3.68 6.34 2.36 5.68 1 5 C1.33 3.68 1.66 2.36 2 1 C1.34 0.67 0.68 0.34 0 0 Z " fill="#0F0F0F" transform="translate(220,151)"/>
<path d="M0 0 C5.75 1.75 5.75 1.75 8 4 C7.01 4.66 6.02 5.32 5 6 C3.31237149 4.3545622 1.6459651 2.68711423 0 1 C0 0.67 0 0.34 0 0 Z " fill="#0A0A0A" transform="translate(242,105)"/>
<path d="M0 0 C0 0.66 0 1.32 0 2 C-0.99 2 -1.98 2 -3 2 C-3 2.66 -3 3.32 -3 4 C-5.97 3.505 -5.97 3.505 -9 3 C-3 0 -3 0 0 0 Z " fill="#2F2F2F" transform="translate(300,209)"/>
<path d="M0 0 C2.64 0 5.28 0 8 0 C5.3144406 2.6855594 2.62378672 3.06049974 -1 4 C-0.67 2.68 -0.34 1.36 0 0 Z " fill="#0D0D0D" transform="translate(300,208)"/>
<path d="M0 0 C0.66 0 1.32 0 2 0 C2.66 1.32 3.32 2.64 4 4 C3.01 5.485 3.01 5.485 2 7 C2 6.01 2 5.02 2 4 C1.01 4.33 0.02 4.66 -1 5 C-0.67 3.35 -0.34 1.7 0 0 Z " fill="#0F0F0F" transform="translate(267,237)"/>
<path d="M0 0 C0.33 0 0.66 0 1 0 C1 1.98 1 3.96 1 6 C-0.98 6.99 -0.98 6.99 -3 8 C-3 7.01 -3 6.02 -3 5 C-2.34 5 -1.68 5 -1 5 C-0.67 3.35 -0.34 1.7 0 0 Z " fill="#0F0F0F" transform="translate(204,120)"/>
<path d="" fill="#FFFFFF" transform="translate(0,0)"/>
<path d="" fill="#FFFFFF" transform="translate(0,0)"/>
<path d="" fill="#FFFFFF" transform="translate(0,0)"/>
<path d="" fill="#FFFFFF" transform="translate(0,0)"/>
<path d="" fill="#FFFFFF" transform="translate(0,0)"/>
<path d="" fill="#FFFFFF" transform="translate(0,0)"/>
<path d="" fill="#FFFFFF" transform="translate(0,0)"/>
<path d="" fill="#FFFFFF" transform="translate(0,0)"/>
<path d="" fill="#FFFFFF" transform="translate(0,0)"/>
<path d="" fill="#FFFFFF" transform="translate(0,0)"/>
<path d="" fill="#FFFFFF" transform="translate(0,0)"/>
<path d="" fill="#FFFFFF" transform="translate(0,0)"/>
<path d="" fill="#FFFFFF" transform="translate(0,0)"/>
<path d="" fill="#FFFFFF" transform="translate(0,0)"/>
<path d="" fill="#FFFFFF" transform="translate(0,0)"/>
<path d="" fill="#FFFFFF" transform="translate(0,0)"/>
<path d="" fill="#FFFFFF" transform="translate(0,0)"/>
<path d="" fill="#FFFFFF" transform="translate(0,0)"/>
<path d="" fill="#FFFFFF" transform="translate(0,0)"/>
<path d="" fill="#FFFFFF" transform="translate(0,0)"/>
<path d="" fill="#FFFFFF" transform="translate(0,0)"/>
<path d="" fill="#FFFFFF" transform="translate(0,0)"/>
<path d="" fill="#FFFFFF" transform="translate(0,0)"/>
<path d="" fill="#FFFFFF" transform="translate(0,0)"/>
<path d="" fill="#FFFFFF" transform="translate(0,0)"/>
<path d="" fill="#FFFFFF" transform="translate(0,0)"/>
<path d="" fill="#FFFFFF" transform="translate(0,0)"/>
<path d="" fill="#FFFFFF" transform="translate(0,0)"/>
<path d="" fill="#FFFFFF" transform="translate(0,0)"/>
<path d="" fill="#FFFFFF" transform="translate(0,0)"/>
<path d="" fill="#FFFFFF" transform="translate(0,0)"/>
<path d="" fill="#FFFFFF" transform="translate(0,0)"/>
<path d="" fill="#FFFFFF" transform="translate(0,0)"/>
<path d="" fill="#FFFFFF" transform="translate(0,0)"/>
<path d="" fill="#FFFFFF" transform="translate(0,0)"/>
<path d="" fill="#FFFFFF" transform="translate(0,0)"/>
<path d="" fill="#FFFFFF" transform="translate(0,0)"/>
<path d="" fill="#FFFFFF" transform="translate(0,0)"/>
<path d="" fill="#FFFFFF" transform="translate(0,0)"/>
<path d="" fill="#FFFFFF" transform="translate(0,0)"/>
<path d="" fill="#FFFFFF" transform="translate(0,0)"/>
<path d="" fill="#FFFFFF" transform="translate(0,0)"/>
<path d="" fill="#FFFFFF" transform="translate(0,0)"/>
<path d="" fill="#FFFFFF" transform="translate(0,0)"/>
<path d="" fill="#FFFFFF" transform="translate(0,0)"/>
<path d="" fill="#FFFFFF" transform="translate(0,0)"/>
<path d="" fill="#FFFFFF" transform="translate(0,0)"/>
<path d="" fill="#FFFFFF" transform="translate(0,0)"/>
<path d="" fill="#FFFFFF" transform="translate(0,0)"/>
<path d="" fill="#FFFFFF" transform="translate(0,0)"/>
<path d="" fill="#FFFFFF" transform="translate(0,0)"/>
<path d="" fill="#FFFFFF" transform="translate(0,0)"/>
<path d="" fill="#FFFFFF" transform="translate(0,0)"/>
<path d="" fill="#FFFFFF" transform="translate(0,0)"/>
<path d="" fill="#FFFFFF" transform="translate(0,0)"/>
<path d="" fill="#FFFFFF" transform="translate(0,0)"/>
<path d="" fill="#FFFFFF" transform="translate(0,0)"/>
<path d="" fill="#FFFFFF" transform="translate(0,0)"/>
<path d="" fill="#FFFFFF" transform="translate(0,0)"/>
<path d="" fill="#FFFFFF" transform="translate(0,0)"/>
<path d="" fill="#FFFFFF" transform="translate(0,0)"/>
<path d="" fill="#FFFFFF" transform="translate(0,0)"/>
<path d="" fill="#FFFFFF" transform="translate(0,0)"/>
<path d="" fill="#FFFFFF" transform="translate(0,0)"/>
<path d="" fill="#FFFFFF" transform="translate(0,0)"/>
<path d="" fill="#FFFFFF" transform="translate(0,0)"/>
<path d="" fill="#FFFFFF" transform="translate(0,0)"/>
<path d="" fill="#FFFFFF" transform="translate(0,0)"/>
<path d="" fill="#FFFFFF" transform="translate(0,0)"/>
<path d="" fill="#FFFFFF" transform="translate(0,0)"/>
<path d="" fill="#FFFFFF" transform="translate(0,0)"/>
<path d="" fill="#FFFFFF" transform="translate(0,0)"/>
<path d="" fill="#FFFFFF" transform="translate(0,0)"/>
<path d="" fill="#FFFFFF" transform="translate(0,0)"/>
<path d="" fill="#FFFFFF" transform="translate(0,0)"/>
<path d="" fill="#FFFFFF" transform="translate(0,0)"/>
<path d="" fill="#FFFFFF" transform="translate(0,0)"/>
<path d="" fill="#FFFFFF" transform="translate(0,0)"/>
<path d="" fill="#FFFFFF" transform="translate(0,0)"/>
<path d="" fill="#FFFFFF" transform="translate(0,0)"/>
<path d="" fill="#FFFFFF" transform="translate(0,0)"/>
<path d="" fill="#FFFFFF" transform="translate(0,0)"/>
<path d="" fill="#FFFFFF" transform="translate(0,0)"/>
<path d="" fill="#FFFFFF" transform="translate(0,0)"/>
<path d="" fill="#FFFFFF" transform="translate(0,0)"/>
<path d="" fill="#FFFFFF" transform="translate(0,0)"/>
<path d="" fill="#FFFFFF" transform="translate(0,0)"/>
</svg>
