<?xml version="1.0" encoding="iso-8859-1"?>
<!-- Uploaded to: SVG Repo, www.svgrepo.com, Generator: SVG Repo Mixer Tools -->
<svg fill="#000000" height="800px" width="800px" version="1.1" id="Layer_1" xmlns="http://www.w3.org/2000/svg" xmlns:xlink="http://www.w3.org/1999/xlink" 
	 viewBox="0 0 512 512" xml:space="preserve">
<g transform="translate(1 1)">
	<g>
		<g>
			<path d="M497.347,391.533h-3.413V101.4c0-18.773-15.36-34.133-34.133-34.133H50.2c-18.773,0-34.133,15.36-34.133,34.133v290.133
				h-3.413C4.973,391.533-1,397.507-1,405.187v23.893c0,7.68,5.973,13.653,13.653,13.653h484.693c7.68,0,13.653-5.973,13.653-13.653
				v-23.893C511,397.507,505.027,391.533,497.347,391.533z M33.133,101.4c0-9.387,7.68-17.067,17.067-17.067h409.6
				c9.387,0,17.067,7.68,17.067,17.067v290.133H299.373l-1.707,5.973c-0.107,0.107-0.227,0.227-0.358,0.355
				c-0.922,0.898-2.415,2.205-3.908,2.205h-68.267c-1.28,0-2.133-0.213-2.773-0.64c-0.64-0.427-1.067-1.067-1.493-1.92l-1.707-5.973
				H33.133V101.4z M493.933,425.667H16.067V408.6h192c4.267,5.12,10.24,8.533,17.067,8.533H293.4c6.827,0,12.8-3.413,17.067-8.533
				h183.467V425.667z"/>
			<path d="M459.8,365.933v-256c0-5.12-3.413-8.533-8.533-8.533H58.733c-5.12,0-8.533,3.413-8.533,8.533v256
				c0,5.12,3.413,8.533,8.533,8.533h392.533C456.387,374.467,459.8,371.053,459.8,365.933z M442.733,357.4H67.267V118.467h375.467
				V357.4z"/>
			<path d="M178.2,263.533h-13.653c-5.12,0-11.093-2.56-14.507-5.973s-8.533-3.413-11.947,0s-3.413,8.533,0,11.947
				c6.827,6.827,16.213,11.093,26.453,11.093H178.2c14.507,0,25.6-11.093,25.6-25.6c0-14.507-11.093-25.6-25.6-25.6h-8.533h-8.533
				c-5.12,0-8.533-3.413-8.533-8.533c0-5.12,3.413-8.533,8.533-8.533h13.653c5.12,0,11.093,2.56,14.507,5.973s8.533,3.413,11.947,0
				c3.413-3.413,3.413-8.533,0-11.947c-6.827-6.827-16.213-11.093-26.453-11.093h-13.653c-14.507,0-25.6,11.093-25.6,25.6
				c0,14.507,11.093,25.6,25.6,25.6h8.533h8.533c5.12,0,8.533,3.413,8.533,8.533S183.32,263.533,178.2,263.533z"/>
			<path d="M229.4,280.6h51.2c5.12,0,8.533-3.413,8.533-8.533c0-5.12-3.413-8.533-8.533-8.533h-42.667v-17.067h25.6
				c5.12,0,8.533-3.413,8.533-8.533s-3.413-8.533-8.533-8.533h-25.6v-17.067H280.6c5.12,0,8.533-3.413,8.533-8.533
				s-3.413-8.533-8.533-8.533h-51.2c-5.12,0-8.533,3.413-8.533,8.533v68.267C220.867,277.187,224.28,280.6,229.4,280.6z"/>
			<path d="M340.333,280.6c18.773,0,34.133-15.36,34.133-34.133V229.4c0-18.773-15.36-34.133-34.133-34.133
				c-18.773,0-34.133,15.36-34.133,34.133v17.067C306.2,265.24,321.56,280.6,340.333,280.6z M323.267,229.4
				c0-9.387,7.68-17.067,17.067-17.067s17.067,7.68,17.067,17.067v17.067c0,9.387-7.68,17.067-17.067,17.067
				s-17.067-7.68-17.067-17.067V229.4z"/>
		</g>
	</g>
</g>
</svg>